# xmcd
#
# Track frame offsets:
#	150
#	16050
#	31199
#	45599
#
# Disc length: 795 seconds
# Revision: 0
# Processed by: cddbd v1.5.2PL0 Copyright (c) Steve Scherf et al.
# Submitted via: dBpowerAMP V12.0
#
DISCID=20031904
DTITLE=Cassie Taylor - Raw Meat Vol 1
DYEAR=2012
DGENRE=Rock T-Z
TTITLE0=New Orleans
TTITLE1=Disappointment
TTITLE2=Forgieness
TTITLE3=Lay My Head on Your Pillow
EXTD=
EXTT0=
EXTT1=
EXTT2=
EXTT3=
PLAYORDER=
